<?xml version="1.0" encoding="iso-8859-1"?>
<!-- Uploaded to: SVG Repo, www.svgrepo.com, Generator: SVG Repo Mixer Tools -->
<svg height="800px" width="800px" version="1.1" id="Layer_1" xmlns="http://www.w3.org/2000/svg" xmlns:xlink="http://www.w3.org/1999/xlink" 
	 viewBox="0 0 512.003 512.003" xml:space="preserve">
<circle style="fill:#FDDF6D;" cx="256.001" cy="256.001" r="256.001"/>
<path style="fill:#FCC56B;" d="M310.859,474.208c-141.385,0-256-114.615-256-256c0-75.537,32.722-143.422,84.757-190.281
	C56.738,70.303,0,156.525,0,256c0,141.385,114.615,256,256,256c65.849,0,125.883-24.87,171.243-65.718
	C392.325,464.135,352.77,474.208,310.859,474.208z"/>
<g>
	<circle style="fill:#FFFFFF;" cx="211.414" cy="176.754" r="57.836"/>
	<circle style="fill:#FFFFFF;" cx="419.675" cy="176.754" r="74.262"/>
</g>
<g>
	<path style="fill:#F9A880;" d="M145.987,279.188c-19.011,0-34.423,15.412-34.423,34.425h68.848
		C180.41,294.6,164.998,279.188,145.987,279.188z"/>
	<path style="fill:#F9A880;" d="M446.251,274.575c-19.011,0-34.423,15.412-34.423,34.425h68.848
		C480.676,289.987,465.264,274.575,446.251,274.575z"/>
</g>
<g>
	<circle style="fill:#7F184C;" cx="221.148" cy="176.754" r="20.829"/>
	<circle style="fill:#7F184C;" cx="435.241" cy="176.754" r="20.829"/>
	<path style="fill:#7F184C;" d="M313.382,321.154L313.382,321.154c43.882,0,79.457,35.574,79.457,79.457v24.167H233.926v-24.167
		C233.926,356.727,269.5,321.154,313.382,321.154z"/>
</g>
<path style="fill:#F2F2F2;" d="M265.683,349.679h101.201c2.047,0,3.937-0.855,5.485-2.294
	c-14.541-16.105-35.58-26.231-58.986-26.231l0,0c-21.693,0-41.345,8.702-55.684,22.795
	C259.38,347.389,262.324,349.679,265.683,349.679z"/>
<path style="fill:#FC4C59;" d="M301.982,395.466c-21.565-13.067-44.685-16.295-66.382-11.121c-1.093,5.25-1.672,10.689-1.672,16.265
	v24.167H333.99C324.999,412.924,314.267,402.911,301.982,395.466z"/>
<ellipse transform="matrix(0.2723 -0.9622 0.9622 0.2723 139.1086 326.3136)" style="fill:#FCEB88;" cx="285.292" cy="71.187" rx="29.854" ry="53.46"/>
</svg>