<?xml version="1.0" encoding="iso-8859-1"?>
<!-- Uploaded to: SVG Repo, www.svgrepo.com, Generator: SVG Repo Mixer Tools -->
<svg height="800px" width="800px" version="1.1" id="Layer_1" xmlns="http://www.w3.org/2000/svg" xmlns:xlink="http://www.w3.org/1999/xlink" 
	 viewBox="0 0 512 512" xml:space="preserve">
<circle style="fill:#FDDF6D;" cx="227.939" cy="267.03" r="227.939"/>
<ellipse transform="matrix(0.2723 -0.9622 0.9622 0.2723 92.9429 358.6932)" style="fill:#FCEB88;" cx="283.616" cy="117.899" rx="26.582" ry="47.6"/>
<path style="fill:#FCC56B;" d="M276.783,461.311c-125.887,0-227.937-102.051-227.937-227.937c0-67.256,29.135-127.7,75.466-169.422
	C50.518,101.684,0,178.453,0,267.025c0,125.887,102.051,227.937,227.937,227.937c58.63,0,112.084-22.144,152.471-58.514
	C349.319,452.344,314.099,461.311,276.783,461.311z"/>
<g>
	<path style="fill:#F9A880;" d="M129.983,270.292c-16.927,0-30.65,13.723-30.65,30.65h61.301
		C160.634,284.015,146.911,270.292,129.983,270.292z"/>
	<path style="fill:#F9A880;" d="M397.333,270.292c-16.927,0-30.651,13.723-30.651,30.65h61.301
		C427.984,284.015,414.261,270.292,397.333,270.292z"/>
</g>
<g>
	<path style="fill:#FD4DD7;" d="M192.342,17.698c-28.554,4.158-49.48,25.855-54.504,51.965c-0.445,2.314-2.204,4.149-4.503,4.67l0,0
		c-2.298,0.521-4.676-0.378-6.076-2.274c-15.772-21.379-43.972-31.943-71.51-23.431C25.307,58.04,6.063,88.891,10.964,120.374
		c3.001,19.28,14.025,35.012,28.966,44.642h-0.001l105.694,73.14c15.824,10.951,37.633,6.003,47.18-10.706l62.54-109.438
		c10.454-15.581,14.18-35.624,8.108-55.346C254.136,32.411,223.668,13.137,192.342,17.698z"/>
	<path style="fill:#FD4DD7;" d="M473.599,74.061c-22.035-5.592-43.811,3.881-55.349,21.366c-1.022,1.549-2.856,2.354-4.686,2.04l0,0
		c-1.83-0.315-3.289-1.686-3.735-3.489c-5.025-20.319-22.357-36.518-44.967-38.633c-24.993-2.339-48.31,14.304-54.246,38.694
		c-3.635,14.935-0.361,29.711,7.606,41.229h-0.001l54.841,85.127c8.211,12.746,25.574,15.727,37.566,6.449l78.542-60.765
		c12.309-8.184,21.072-21.644,22.605-37.831C514.128,103.418,497.773,80.197,473.599,74.061z"/>
</g>
<g>
	<path style="fill:#E54190;" d="M193.66,214.253l-105.694-73.14h0.001c-14.94-9.63-25.965-25.362-28.966-44.642
		c-2.888-18.554,2.615-36.884,13.849-50.74c-5.651,0.198-11.388,1.131-17.1,2.897C25.309,58.04,6.063,88.891,10.964,120.374
		c3.001,19.28,14.025,35.012,28.966,44.642h-0.001l105.694,73.14c15.824,10.951,37.632,6.003,47.18-10.706l5.904-10.331
		C196.976,216.326,195.285,215.377,193.66,214.253z"/>
	<path style="fill:#E54190;" d="M421.099,196.489l-54.841-85.127h0.001c-7.966-11.518-11.241-26.293-7.606-41.229
		c1.299-5.34,3.432-10.309,6.234-14.788c-0.009-0.001-0.016-0.002-0.025-0.002c-24.993-2.339-48.31,14.304-54.246,38.694
		c-3.635,14.937-0.361,29.711,7.606,41.229h-0.001l54.841,85.127c8.211,12.746,25.574,15.727,37.566,6.449l25.173-19.474
		C429.966,205.721,424.667,202.029,421.099,196.489z"/>
</g>
<path style="fill:#7F184C;" d="M280.205,421.312L280.205,421.312c-50.956,0-92.265-41.309-92.265-92.265l0,0H372.47l0,0
	C372.47,380.004,331.161,421.312,280.205,421.312z"/>
<path style="fill:#F2F2F2;" d="M210.452,329.047v14.403c0,6.073,4.923,10.995,10.995,10.995h117.514
	c6.073,0,10.995-4.923,10.995-10.995v-14.403H210.452z"/>
<path style="fill:#FC4C59;" d="M282.141,383.034c-24.94-11.587-52.617-9.903-75.059,2.114c16.864,21.98,43.384,36.164,73.229,36.164
	l0,0c13.153,0,25.651-2.771,36.974-7.73C308.979,400.729,297.068,389.969,282.141,383.034z"/>
</svg>