<?xml version="1.0" encoding="iso-8859-1"?>
<!-- Uploaded to: SVG Repo, www.svgrepo.com, Generator: SVG Repo Mixer Tools -->
<svg height="800px" width="800px" version="1.1" id="Layer_1" xmlns="http://www.w3.org/2000/svg" xmlns:xlink="http://www.w3.org/1999/xlink" 
	 viewBox="0 0 512.003 512.003" xml:space="preserve">
<circle style="fill:#FDDF6D;" cx="256.001" cy="256.001" r="256.001"/>
<path style="fill:#FCC56B;" d="M310.859,474.208c-141.385,0-256-114.615-256-256c0-75.537,32.722-143.422,84.757-190.281
	C56.738,70.303,0,156.525,0,256c0,141.385,114.615,256,256,256c65.849,0,125.883-24.87,171.243-65.718
	C392.325,464.135,352.77,474.208,310.859,474.208z"/>
<g>
	<path style="fill:#7F184C;" d="M422.988,193.896c-3.656,0-7.203-1.929-9.108-5.349c-6.683-11.996-19.353-19.447-33.065-19.447
		c-13.374,0-26.215,7.561-33.512,19.733c-2.959,4.932-9.354,6.533-14.287,3.577c-4.934-2.958-6.535-9.354-3.577-14.287
		c11.039-18.414,30.725-29.853,51.377-29.853c21.264,0,40.905,11.549,51.26,30.139c2.799,5.025,0.996,11.368-4.03,14.166
		C426.442,193.472,424.702,193.896,422.988,193.896z"/>
	<path style="fill:#7F184C;" d="M373.297,409.03c-14.171,0-28.591-1.97-42.726-2.958c-5.084-0.355-12.807,0.344-17.064-2.995
		c-9.847-7.723-0.741-18.882,9.104-18.441c15.643,0.7,31.235,2.694,46.882,3.273c9.166,0.339,16.284-10.364,7.06-16.977
		c-6.008-4.306-15.129-6.607-21.851-9.541c-7.654-3.34-15.208-11.289-6.992-19.179c4.864-4.671,12.402-7.768,18.106-11.25
		c5.803-3.544,14.829-6.732,14.954-14.719c0.147-9.445-8.408-10.209-15.434-8.886c-15.273,2.876-30.667,6.722-46.082,8.677
		c-10.585,1.343-19.496-11.553-8.795-18.695c4.482-2.991,12.053-3.113,17.142-4.071c9.933-1.87,19.865-3.741,29.798-5.611
		c9.386-1.768,18.296-3.417,27.433,1.029c13.986,6.805,19.967,23.319,15.077,37.774c-3.86,11.413-13.206,16.154-22.772,21.994
		c12.943,6.131,24.027,13.385,24.445,29.458C401.977,393.256,389.373,409.03,373.297,409.03z"/>
	<circle style="fill:#7F184C;" cx="213.621" cy="179.504" r="31.243"/>
</g>
<ellipse transform="matrix(0.2723 -0.9622 0.9622 0.2723 143.1674 354.2198)" style="fill:#FCEB88;" cx="305.771" cy="82.457" rx="29.854" ry="53.46"/>
<g>
	<path style="fill:#F9A880;" d="M145.987,240.152c-19.011,0-34.423,15.412-34.423,34.423h68.848
		C180.41,255.564,164.998,240.152,145.987,240.152z"/>
	<path style="fill:#F9A880;" d="M446.251,235.539c-19.011,0-34.425,15.412-34.425,34.423h68.848
		C480.676,250.951,465.264,235.539,446.251,235.539z"/>
</g>
</svg>